<?xml version="1.0" encoding="UTF-8"?>
<svg width="290px" height="40px" viewBox="0 0 290 40" version="1.1" xmlns="http://www.w3.org/2000/svg" xmlns:xlink="http://www.w3.org/1999/xlink">
    <!-- Generator: Sketch 53.2 (72643) - https://sketchapp.com -->
    <title>Group</title>
    <desc>Created with Sketch.</desc>
    <defs>
        <polygon id="path-1" points="0 0 75 0 75 40 0 40"></polygon>
    </defs>
    <g id="Page-2" stroke="none" stroke-width="1" fill="none" fill-rule="evenodd">
        <g id="Investors" transform="translate(-102.000000, -48.000000)">
            <g id="Group" transform="translate(102.000000, 48.000000)">
                <g id="Group-5">
                    <mask id="mask-2" fill="white">
                        <use xlink:href="#path-1"></use>
                    </mask>
                    <g id="Clip-2"></g>
                    <path d="M38.6230797,26.8217132 C40.7396529,19.7684054 42.8046992,12.8418996 44.9093793,5.92727719 C45.1511559,5.13454242 45.2244817,4.60143237 44.1879942,4.58557471 C43.2288067,4.5717042 42.9909846,4.00490156 43.0563818,3.17054538 C43.0821452,2.85147421 43.0880966,2.52447421 43.0544045,2.20539315 C42.9572925,1.28186234 43.3060969,0.968732853 44.2712359,1.00242544 C46.4809468,1.07971671 48.6966092,1.0618719 50.9083073,1.00836712 C51.6792321,0.990532194 52.0200979,1.21844159 51.9883929,1.99135427 C51.9725355,2.39169101 51.9764998,2.79399513 51.9963118,3.19630914 C52.0379326,4.04255857 51.7327361,4.59944522 50.8032666,4.56576252 C49.713275,4.52611837 49.4437479,5.23165577 49.1821495,6.10564622 C46.7306521,14.3461135 44.0631415,22.5171688 41.3143764,30.6644971 C40.9754878,31.4790282 40.9972869,31.6316295 40.7356885,31.7208121 C39.2869865,32.2043798 36.6293819,31.9625959 36.147806,31.7208121 C35.8426095,31.5682107 35.0974481,29.2692799 34.699104,28.0980176 C32.198067,20.7593214 29.9962749,13.3492459 27.7687292,5.92331277 C27.5368586,5.14842282 27.2851662,4.59549069 26.369567,4.60340964 C25.307316,4.61332562 24.8911372,4.04453583 25.0239186,3.01002116 C25.0655394,2.69292726 25.0635622,2.36592726 25.0377988,2.0468462 C24.9783433,1.30167453 25.2141782,0.990532194 26.0465358,1.00836712 C28.5000104,1.06583631 30.9534851,1.05593022 33.4069696,1.01233154 C34.1501439,0.998461025 34.4335413,1.25609859 34.3998492,1.96757767 C34.3800373,2.36790452 34.3820145,2.77418294 34.4117423,3.17253253 C34.4751621,4.03066532 34.1699657,4.56773979 33.2404961,4.58359745 C32.2238304,4.60143237 32.2476066,5.08697933 32.4953347,5.90944226 C34.3324748,11.9857441 36.1240198,18.0739392 37.9235035,24.1620947 C38.1712315,25.0023926 38.3713971,25.8585481 38.6230797,26.8217132 Z" id="Fill-1" fill="#2F5495" mask="url(#mask-2)"></path>
                    <path d="M57.2266781,30.6958721 C55.3436678,30.6958721 53.4587384,30.7350609 51.5757281,30.7135072 C49.6791969,30.6899947 48.4999033,29.2576644 49.2074775,27.825332 C51.6144008,22.946392 51.0518151,23.9476504 52.2755775,21.3455477 C55.2624745,14.9970933 58.3943699,8.72697147 61.7582529,2.57440732 C62.0753106,1.99638384 62.4097662,1.96502732 62.9646077,2.01793656 C66.0269116,2.30989042 66.0481767,2.32164911 64.7045485,5.01780178 C61.2710741,11.8992585 57.8317843,18.7787603 54.3983002,25.6601778 C53.8028573,26.8534656 53.8105919,26.8632596 55.1078129,26.8652145 C57.7370604,26.869134 60.3682367,26.8397422 62.9955458,26.8828574 C63.8094457,26.896571 64.0936365,26.6516422 64.0743099,25.8051724 C64.0259739,23.5381389 64.111044,21.2691309 64.0317796,19.0040913 C63.9989127,18.0733656 64.3488277,17.7050046 65.1724006,17.618784 C65.3676637,17.5991959 65.5609883,17.5756785 65.7562513,17.5658845 C68.0897062,17.4581111 68.2907653,17.6501405 68.2907653,19.9426463 C68.2907653,21.9314201 68.3139689,23.9202232 68.2791636,25.9090263 C68.265633,26.6281345 68.4937533,26.896571 69.2206639,26.8769732 C70.7885452,26.8338677 72.3602937,26.8906868 73.9301039,26.8515009 C74.6222187,26.8338677 74.860012,27.0454852 74.9141441,27.7841815 C75.1287338,30.6958721 75.1596623,30.6919535 72.2732948,30.6919535 C71.25253,30.6919535 70.2298365,30.7291826 69.2129293,30.6801968 C68.4744266,30.6449276 68.2695002,30.9466774 68.2791636,31.6559848 C68.3101017,34.0033626 68.2462966,36.3507395 68.3139689,38.6961575 C68.3391013,39.607285 67.9157083,39.8874811 67.1733383,39.9756547 C66.9800137,39.9991677 66.7808833,39.9893706 66.5856203,39.9932894 C64.1091056,40.0324777 64.0588408,39.981533 64.0588408,37.4852405 C64.0588408,35.5356233 64.0337084,33.5860071 64.0723714,31.6383507 C64.0859117,30.90357 63.8268532,30.668441 63.1154117,30.6821566 C61.1512082,30.7213444 59.1889431,30.6958721 57.2266781,30.6958721 Z" id="Fill-3" fill="#EAE2CC" mask="url(#mask-2)"></path>
                    <path d="M17.7580588,14.7714699 C18.2179366,14.4664931 18.5435963,14.2559676 18.8633388,14.0375704 C20.2627226,13.081328 21.2712872,11.8279805 21.7706368,10.196867 C23.2509138,5.35861887 20.6337716,1.15392005 15.4665764,0.386570461 C10.6092778,-0.335531215 5.71644376,0.144557942 0.837428509,0.309835502 C0.466370743,0.32163333 0.27886817,0.447561895 0.1821563,0.837135602 C-0.321140141,2.8794751 0.176235133,3.65666929 2.2052111,3.92622317 C2.2446849,3.93213189 2.28613277,3.92622317 2.32560754,3.93803081 C3.24338302,4.193814 3.44272803,4.29612728 3.43878084,5.16185426 C3.40325325,11.9106242 3.38746354,18.6593843 3.44864929,25.4061421 C3.45851774,26.5847176 3.17035572,27.0746416 1.95060161,27.1848266 C0.107155311,27.3501042 0.0834707212,27.5330883 0.117023857,29.3688284 C0.120971236,29.6088779 0.117023857,29.8489176 0.117023857,30.0889572 C0.117023857,30.5690484 0.401238299,30.7618702 0.965719805,30.7618702 C5.5269672,30.7599033 10.0862392,31.2596659 14.6494634,30.8169627 C19.3074238,30.3644208 22.1061621,27.9895622 22.8226214,23.9147278 C23.5568426,19.719903 22.0390629,16.904315 17.7580588,14.7714699 Z M8.50727187,3.67043997 C9.26517711,3.62321921 13.1139121,3.56419081 14.2527465,3.88293829 C16.5481771,4.52436912 17.5508146,6.00988451 17.4777882,8.67987435 C17.4087101,11.1806507 16.1396157,12.8648938 13.9369522,13.3095698 C12.073772,13.6873359 10.1809756,13.4315527 8.3020056,13.5004159 C7.77897196,13.5200953 7.73949817,13.193476 7.73949817,12.7999665 C7.74344536,10.004048 7.75528789,7.20616661 7.73160282,4.4102482 C7.72568156,3.81603813 7.81252547,3.71372485 8.50727187,3.67043997 Z M14.6751215,27.1533494 C12.5790388,27.6393375 10.4533498,27.4110956 8.33358502,27.3146911 C7.74541944,27.2871399 7.73555099,26.9329793 7.73752409,26.5060197 C7.74541944,25.028376 7.73949817,23.5507226 7.73949817,22.073079 C7.73949817,20.5954354 7.74739254,19.117831 7.73555099,17.6401874 C7.73160282,17.1837135 7.79476168,16.9003792 8.3750329,16.9003792 C10.6961178,16.9003792 12.4625925,16.7114961 14.4856489,17.1246851 C16.9843659,17.6382145 18.3166211,19.2791727 18.3639892,21.8664894 C18.4192537,24.7588123 17.1817348,26.570947 14.6751215,27.1533494 Z" id="Fill-4" fill="#2F5495" mask="url(#mask-2)"></path>
                </g>
                <path d="M97.468,19.972 C96.8333302,19.1973295 96.049338,18.81 95.116,18.81 C94.7053313,18.81 94.3250018,18.8846659 93.975,19.034 C93.6249983,19.1833341 93.3240013,19.386332 93.072,19.643 C92.8199987,19.8996679 92.6216674,20.2053316 92.477,20.56 C92.3323326,20.9146684 92.26,21.2973313 92.26,21.708 C92.26,22.1280021 92.3323326,22.5153316 92.477,22.87 C92.6216674,23.2246684 92.822332,23.5326654 93.079,23.794 C93.3356679,24.0553346 93.6366649,24.2606659 93.982,24.41 C94.3273351,24.5593341 94.7006647,24.634 95.102,24.634 C95.9793377,24.634 96.7679965,24.2606704 97.468,23.514 L97.468,26.762 L97.188,26.86 C96.7679979,27.0093341 96.3760018,27.1189996 96.012,27.189 C95.6479982,27.2590003 95.2886684,27.294 94.934,27.294 C94.2059964,27.294 93.5083367,27.1563347 92.841,26.881 C92.1736633,26.6056653 91.5856692,26.2183358 91.077,25.719 C90.5683308,25.2196642 90.1600015,24.6270034 89.852,23.941 C89.5439985,23.2549966 89.39,22.5060041 89.39,21.694 C89.39,20.8819959 89.5416652,20.13767 89.845,19.461 C90.1483348,18.7843299 90.5543308,18.2010024 91.063,17.711 C91.5716692,17.2209975 92.1619966,16.8383347 92.834,16.563 C93.5060034,16.2876653 94.210663,16.15 94.948,16.15 C95.3680021,16.15 95.780998,16.1943329 96.187,16.283 C96.593002,16.3716671 97.0199978,16.5093324 97.468,16.696 L97.468,19.972 Z M104.216,22.366 C104.132,22.0113316 103.959335,21.7266677 103.698,21.512 C103.436665,21.2973323 103.119335,21.19 102.746,21.19 C102.353998,21.19 102.034335,21.2926656 101.787,21.498 C101.539665,21.7033344 101.383334,21.9926648 101.318,22.366 L104.216,22.366 Z M101.248,23.836 C101.248,24.9280055 101.761328,25.474 102.788,25.474 C103.338669,25.474 103.753999,25.2500022 104.034,24.802 L106.484,24.802 C105.989331,26.4446749 104.752677,27.266 102.774,27.266 C102.16733,27.266 101.612003,27.1750009 101.108,26.993 C100.603997,26.8109991 100.172335,26.5520017 99.813,26.216 C99.4536649,25.8799983 99.176001,25.478669 98.98,25.012 C98.783999,24.545331 98.686,24.0226696 98.686,23.444 C98.686,22.8466637 98.7793324,22.3076691 98.966,21.827 C99.1526676,21.3463309 99.4186649,20.9380017 99.764,20.602 C100.109335,20.2659983 100.526998,20.0070009 101.017,19.825 C101.507002,19.6429991 102.059997,19.552 102.676,19.552 C103.28267,19.552 103.828664,19.6429991 104.314,19.825 C104.799336,20.0070009 105.209998,20.2706649 105.546,20.616 C105.882002,20.9613351 106.138666,21.3836642 106.316,21.883 C106.493334,22.3823358 106.582,22.9446635 106.582,23.57 L106.582,23.836 L101.248,23.836 Z M108.024,19.818 L110.558,19.818 L110.558,20.994 C110.828668,20.5646645 111.159998,20.2356678 111.552,20.007 C111.944002,19.7783322 112.401331,19.664 112.924,19.664 L113.141,19.664 C113.220334,19.664 113.311333,19.6733332 113.414,19.692 L113.414,22.114 C113.077998,21.9459992 112.714002,21.862 112.322,21.862 C111.733997,21.862 111.293001,22.0369982 110.999,22.387 C110.704999,22.7370017 110.558,23.2479966 110.558,23.92 L110.558,27 L108.024,27 L108.024,19.818 Z M117.362,21.932 L117.362,27 L114.828,27 L114.828,21.932 L113.988,21.932 L113.988,19.818 L114.828,19.818 L114.828,17.662 L117.362,17.662 L117.362,19.818 L118.804,19.818 L118.804,21.932 L117.362,21.932 Z M122.29,19.818 L122.29,27 L119.756,27 L119.756,19.818 L122.29,19.818 Z M119.588,17.06 C119.588,16.863999 119.625333,16.6796675 119.7,16.507 C119.774667,16.3343325 119.877333,16.1826673 120.008,16.052 C120.138667,15.9213327 120.290332,15.818667 120.463,15.744 C120.635668,15.669333 120.819999,15.632 121.016,15.632 C121.212001,15.632 121.396332,15.669333 121.569,15.744 C121.741668,15.818667 121.893333,15.9213327 122.024,16.052 C122.154667,16.1826673 122.257333,16.3343325 122.332,16.507 C122.406667,16.6796675 122.444,16.863999 122.444,17.06 C122.444,17.256001 122.406667,17.4403325 122.332,17.613 C122.257333,17.7856675 122.154667,17.9373327 122.024,18.068 C121.893333,18.1986673 121.741668,18.301333 121.569,18.376 C121.396332,18.450667 121.212001,18.488 121.016,18.488 C120.819999,18.488 120.635668,18.450667 120.463,18.376 C120.290332,18.301333 120.138667,18.1986673 120.008,18.068 C119.877333,17.9373327 119.774667,17.7856675 119.7,17.613 C119.625333,17.4403325 119.588,17.256001 119.588,17.06 Z M124.236,19.818 L124.236,18.488 C124.236,18.021331 124.336332,17.5803354 124.537,17.165 C124.737668,16.7496646 125.008332,16.3880015 125.349,16.08 C125.689668,15.7719985 126.086331,15.5270009 126.539,15.345 C126.991669,15.1629991 127.469997,15.072 127.974,15.072 C128.478003,15.072 128.956331,15.1606658 129.409,15.338 C129.861669,15.5153342 130.258332,15.7579985 130.599,16.066 C130.939668,16.3740015 131.210332,16.7356646 131.411,17.151 C131.611668,17.5663354 131.712,18.0119976 131.712,18.488 L131.712,18.81 L129.178,18.81 L129.178,18.488 C129.178,18.3199992 129.147667,18.1590008 129.087,18.005 C129.026333,17.8509992 128.942334,17.7133339 128.835,17.592 C128.727666,17.4706661 128.601667,17.372667 128.457,17.298 C128.312333,17.223333 128.151334,17.186 127.974,17.186 C127.628665,17.186 127.341668,17.3166654 127.113,17.578 C126.884332,17.8393346 126.77,18.1426649 126.77,18.488 L126.77,19.818 L128.226,19.818 L128.226,21.932 L126.77,21.932 L126.77,27 L124.236,27 L124.236,21.932 L123.326,21.932 L123.326,19.818 L124.236,19.818 Z M131.712,27 L129.178,27 L129.178,19.818 L131.712,19.818 L131.712,27 Z M138.698,22.366 C138.614,22.0113316 138.441335,21.7266677 138.18,21.512 C137.918665,21.2973323 137.601335,21.19 137.228,21.19 C136.835998,21.19 136.516335,21.2926656 136.269,21.498 C136.021665,21.7033344 135.865334,21.9926648 135.8,22.366 L138.698,22.366 Z M135.73,23.836 C135.73,24.9280055 136.243328,25.474 137.27,25.474 C137.820669,25.474 138.235999,25.2500022 138.516,24.802 L140.966,24.802 C140.471331,26.4446749 139.234677,27.266 137.256,27.266 C136.64933,27.266 136.094003,27.1750009 135.59,26.993 C135.085997,26.8109991 134.654335,26.5520017 134.295,26.216 C133.935665,25.8799983 133.658001,25.478669 133.462,25.012 C133.265999,24.545331 133.168,24.0226696 133.168,23.444 C133.168,22.8466637 133.261332,22.3076691 133.448,21.827 C133.634668,21.3463309 133.900665,20.9380017 134.246,20.602 C134.591335,20.2659983 135.008998,20.0070009 135.499,19.825 C135.989002,19.6429991 136.541997,19.552 137.158,19.552 C137.76467,19.552 138.310664,19.6429991 138.796,19.825 C139.281336,20.0070009 139.691998,20.2706649 140.028,20.616 C140.364002,20.9613351 140.620666,21.3836642 140.798,21.883 C140.975334,22.3823358 141.064,22.9446635 141.064,23.57 L141.064,23.836 L135.73,23.836 Z M144.858,23.388 C144.858,23.6213345 144.9,23.8383323 144.984,24.039 C145.068,24.2396677 145.182333,24.4146659 145.327,24.564 C145.471667,24.7133341 145.644332,24.8299996 145.845,24.914 C146.045668,24.9980004 146.262665,25.04 146.496,25.04 C146.720001,25.04 146.932332,24.9980004 147.133,24.914 C147.333668,24.8299996 147.506333,24.7133341 147.651,24.564 C147.795667,24.4146659 147.912333,24.242001 148.001,24.046 C148.089667,23.849999 148.134,23.6400011 148.134,23.416 C148.134,23.1919989 148.089667,22.9796677 148.001,22.779 C147.912333,22.5783323 147.795667,22.4033341 147.651,22.254 C147.506333,22.1046659 147.333668,21.9880004 147.133,21.904 C146.932332,21.8199996 146.720001,21.778 146.496,21.778 C146.271999,21.778 146.059668,21.8199996 145.859,21.904 C145.658332,21.9880004 145.485667,22.1046659 145.341,22.254 C145.196333,22.4033341 145.079667,22.5736657 144.991,22.765 C144.902333,22.9563343 144.858,23.1639989 144.858,23.388 Z M148.05,15.38 L150.598,15.38 L150.598,27 L148.05,27 L148.05,26.202 C147.508664,26.8833367 146.776005,27.224 145.852,27.224 C145.329331,27.224 144.848669,27.126001 144.41,26.93 C143.971331,26.733999 143.588668,26.4633351 143.262,26.118 C142.935332,25.7726649 142.681001,25.366669 142.499,24.9 C142.316999,24.433331 142.226,23.929336 142.226,23.388 C142.226,22.8746641 142.312332,22.3870023 142.485,21.925 C142.657668,21.4629977 142.902665,21.0593351 143.22,20.714 C143.537335,20.3686649 143.917664,20.0956677 144.361,19.895 C144.804336,19.6943323 145.291997,19.594 145.824,19.594 C146.720004,19.594 147.461997,19.9066635 148.05,20.532 L148.05,15.38 Z M159.194,16.444 L161.742,22.87 L164.304,16.444 L167.286,16.444 L162.834,27 L160.65,27 L156.212,16.444 L159.194,16.444 Z M170.506,23.388 C170.506,23.6213345 170.548,23.8383323 170.632,24.039 C170.716,24.2396677 170.830333,24.4146659 170.975,24.564 C171.119667,24.7133341 171.292332,24.8299996 171.493,24.914 C171.693668,24.9980004 171.910665,25.04 172.144,25.04 C172.368001,25.04 172.580332,24.9980004 172.781,24.914 C172.981668,24.8299996 173.154333,24.7133341 173.299,24.564 C173.443667,24.4146659 173.560333,24.242001 173.649,24.046 C173.737667,23.849999 173.782,23.6400011 173.782,23.416 C173.782,23.1919989 173.737667,22.9796677 173.649,22.779 C173.560333,22.5783323 173.443667,22.4033341 173.299,22.254 C173.154333,22.1046659 172.981668,21.9880004 172.781,21.904 C172.580332,21.8199996 172.368001,21.778 172.144,21.778 C171.910665,21.778 171.693668,21.8199996 171.493,21.904 C171.292332,21.9880004 171.119667,22.1046659 170.975,22.254 C170.830333,22.4033341 170.716,22.5736657 170.632,22.765 C170.548,22.9563343 170.506,23.1639989 170.506,23.388 Z M173.698,19.818 L176.246,19.818 L176.246,27 L173.698,27 L173.698,26.202 C173.156664,26.8833367 172.424005,27.224 171.5,27.224 C170.977331,27.224 170.496669,27.1283343 170.058,26.937 C169.619331,26.7456657 169.236668,26.4773351 168.91,26.132 C168.583332,25.7866649 168.329001,25.380669 168.147,24.914 C167.964999,24.447331 167.874,23.9386694 167.874,23.388 C167.874,22.8746641 167.962666,22.3870023 168.14,21.925 C168.317334,21.4629977 168.564665,21.0593351 168.882,20.714 C169.199335,20.3686649 169.577331,20.0956677 170.016,19.895 C170.454669,19.6943323 170.939997,19.594 171.472,19.594 C172.368004,19.594 173.109997,19.9066635 173.698,20.532 L173.698,19.818 Z M180.502,15.38 L180.502,27 L177.968,27 L177.968,15.38 L180.502,15.38 Z M184.772,19.818 L184.772,23.864 C184.772,24.7506711 185.201329,25.194 186.06,25.194 C186.918671,25.194 187.348,24.7506711 187.348,23.864 L187.348,19.818 L189.882,19.818 L189.882,24.354 C189.882,25.3246715 189.562337,26.0526642 188.923,26.538 C188.283663,27.0233358 187.32934,27.266 186.06,27.266 C184.79066,27.266 183.836337,27.0233358 183.197,26.538 C182.557663,26.0526642 182.238,25.3246715 182.238,24.354 L182.238,19.818 L184.772,19.818 Z M193.956,23.388 C193.956,23.6213345 193.998,23.8383323 194.082,24.039 C194.166,24.2396677 194.280333,24.4146659 194.425,24.564 C194.569667,24.7133341 194.742332,24.8299996 194.943,24.914 C195.143668,24.9980004 195.360665,25.04 195.594,25.04 C195.818001,25.04 196.030332,24.9980004 196.231,24.914 C196.431668,24.8299996 196.604333,24.7133341 196.749,24.564 C196.893667,24.4146659 197.010333,24.242001 197.099,24.046 C197.187667,23.849999 197.232,23.6400011 197.232,23.416 C197.232,23.1919989 197.187667,22.9796677 197.099,22.779 C197.010333,22.5783323 196.893667,22.4033341 196.749,22.254 C196.604333,22.1046659 196.431668,21.9880004 196.231,21.904 C196.030332,21.8199996 195.818001,21.778 195.594,21.778 C195.360665,21.778 195.143668,21.8199996 194.943,21.904 C194.742332,21.9880004 194.569667,22.1046659 194.425,22.254 C194.280333,22.4033341 194.166,22.5736657 194.082,22.765 C193.998,22.9563343 193.956,23.1639989 193.956,23.388 Z M197.148,19.818 L199.696,19.818 L199.696,27 L197.148,27 L197.148,26.202 C196.606664,26.8833367 195.874005,27.224 194.95,27.224 C194.427331,27.224 193.946669,27.1283343 193.508,26.937 C193.069331,26.7456657 192.686668,26.4773351 192.36,26.132 C192.033332,25.7866649 191.779001,25.380669 191.597,24.914 C191.414999,24.447331 191.324,23.9386694 191.324,23.388 C191.324,22.8746641 191.412666,22.3870023 191.59,21.925 C191.767334,21.4629977 192.014665,21.0593351 192.332,20.714 C192.649335,20.3686649 193.027331,20.0956677 193.466,19.895 C193.904669,19.6943323 194.389997,19.594 194.922,19.594 C195.818004,19.594 196.559997,19.9066635 197.148,20.532 L197.148,19.818 Z M204.246,21.932 L204.246,27 L201.712,27 L201.712,21.932 L200.872,21.932 L200.872,19.818 L201.712,19.818 L201.712,17.662 L204.246,17.662 L204.246,19.818 L205.688,19.818 L205.688,21.932 L204.246,21.932 Z M209.174,19.818 L209.174,27 L206.64,27 L206.64,19.818 L209.174,19.818 Z M206.472,17.06 C206.472,16.863999 206.509333,16.6796675 206.584,16.507 C206.658667,16.3343325 206.761333,16.1826673 206.892,16.052 C207.022667,15.9213327 207.174332,15.818667 207.347,15.744 C207.519668,15.669333 207.703999,15.632 207.9,15.632 C208.096001,15.632 208.280332,15.669333 208.453,15.744 C208.625668,15.818667 208.777333,15.9213327 208.908,16.052 C209.038667,16.1826673 209.141333,16.3343325 209.216,16.507 C209.290667,16.6796675 209.328,16.863999 209.328,17.06 C209.328,17.256001 209.290667,17.4403325 209.216,17.613 C209.141333,17.7856675 209.038667,17.9373327 208.908,18.068 C208.777333,18.1986673 208.625668,18.301333 208.453,18.376 C208.280332,18.450667 208.096001,18.488 207.9,18.488 C207.703999,18.488 207.519668,18.450667 207.347,18.376 C207.174332,18.301333 207.022667,18.1986673 206.892,18.068 C206.761333,17.9373327 206.658667,17.7856675 206.584,17.613 C206.509333,17.4403325 206.472,17.256001 206.472,17.06 Z M213.304,23.374 C213.304,23.6166679 213.348333,23.8383323 213.437,24.039 C213.525667,24.2396677 213.642333,24.4146659 213.787,24.564 C213.931667,24.7133341 214.104332,24.8299996 214.305,24.914 C214.505668,24.9980004 214.717999,25.04 214.942,25.04 C215.166001,25.04 215.378332,24.9980004 215.579,24.914 C215.779668,24.8299996 215.952333,24.7133341 216.097,24.564 C216.241667,24.4146659 216.358333,24.2396677 216.447,24.039 C216.535667,23.8383323 216.58,23.6213345 216.58,23.388 C216.58,23.1639989 216.535667,22.9516677 216.447,22.751 C216.358333,22.5503323 216.241667,22.3753341 216.097,22.226 C215.952333,22.0766659 215.779668,21.9600004 215.579,21.876 C215.378332,21.7919996 215.166001,21.75 214.942,21.75 C214.717999,21.75 214.505668,21.7919996 214.305,21.876 C214.104332,21.9600004 213.931667,22.0766659 213.787,22.226 C213.642333,22.3753341 213.525667,22.547999 213.437,22.744 C213.348333,22.940001 213.304,23.1499989 213.304,23.374 Z M210.63,23.346 C210.63,22.8139973 210.737332,22.3170023 210.952,21.855 C211.166668,21.3929977 211.465331,20.9916684 211.848,20.651 C212.230669,20.3103316 212.685664,20.042001 213.213,19.846 C213.740336,19.649999 214.316664,19.552 214.942,19.552 C215.558003,19.552 216.129664,19.6476657 216.657,19.839 C217.184336,20.0303343 217.641665,20.2963316 218.029,20.637 C218.416335,20.9776684 218.717332,21.3836643 218.932,21.855 C219.146668,22.3263357 219.254,22.8466638 219.254,23.416 C219.254,23.9853362 219.144334,24.5056643 218.925,24.977 C218.705666,25.4483357 218.404669,25.8543316 218.022,26.195 C217.639331,26.5356684 217.179669,26.7993324 216.643,26.986 C216.106331,27.1726676 215.525336,27.266 214.9,27.266 C214.283997,27.266 213.714669,27.1726676 213.192,26.986 C212.669331,26.7993324 212.219002,26.5333351 211.841,26.188 C211.462998,25.8426649 211.166668,25.4296691 210.952,24.949 C210.737332,24.4683309 210.63,23.9340029 210.63,23.346 Z M220.71,19.818 L223.244,19.818 L223.244,20.728 C223.589335,20.3079979 223.939332,20.0256674 224.294,19.881 C224.648668,19.7363326 225.063998,19.664 225.54,19.664 C226.044003,19.664 226.475665,19.7456658 226.835,19.909 C227.194335,20.0723341 227.499999,20.3033318 227.752,20.602 C227.957334,20.8446679 228.097333,21.1153318 228.172,21.414 C228.246667,21.7126682 228.284,22.0533314 228.284,22.436 L228.284,27 L225.75,27 L225.75,23.374 C225.75,23.0193316 225.724334,22.7323344 225.673,22.513 C225.621666,22.2936656 225.530667,22.1186673 225.4,21.988 C225.287999,21.8759994 225.162001,21.7966669 225.022,21.75 C224.881999,21.7033331 224.732667,21.68 224.574,21.68 C224.144665,21.68 223.815668,21.808332 223.587,22.065 C223.358332,22.3216679 223.244,22.6879976 223.244,23.164 L223.244,27 L220.71,27 L220.71,19.818 Z M241.01,18.768 L237.748,18.768 L237.748,20.532 L240.828,20.532 L240.828,22.856 L237.748,22.856 L237.748,24.676 L241.01,24.676 L241.01,27 L235.004,27 L235.004,16.444 L241.01,16.444 L241.01,18.768 Z M245.462,23.108 L242.55,19.818 L245.854,19.818 L247.086,21.302 L248.346,19.818 L251.65,19.818 L248.668,23.108 L252.266,27 L248.906,27 L247.072,24.872 L245.224,27 L241.878,27 L245.462,23.108 Z M258.86,23.43 C258.86,23.2059989 258.820334,22.9936677 258.741,22.793 C258.661666,22.5923323 258.547334,22.4173341 258.398,22.268 C258.248666,22.1186659 258.073668,21.9996671 257.873,21.911 C257.672332,21.8223329 257.455334,21.778 257.222,21.778 C256.997999,21.778 256.788001,21.8199996 256.592,21.904 C256.395999,21.9880004 256.225667,22.1046659 256.081,22.254 C255.936333,22.4033341 255.819667,22.5783323 255.731,22.779 C255.642333,22.9796677 255.598,23.1919989 255.598,23.416 C255.598,23.6400011 255.64,23.849999 255.724,24.046 C255.808,24.242001 255.924666,24.4123326 256.074,24.557 C256.223334,24.7016674 256.398332,24.8183329 256.599,24.907 C256.799668,24.9956671 257.011999,25.04 257.236,25.04 C257.460001,25.04 257.669999,24.9980004 257.866,24.914 C258.062001,24.8299996 258.232333,24.7133341 258.377,24.564 C258.521667,24.4146659 258.638333,24.242001 258.727,24.046 C258.815667,23.849999 258.86,23.6446677 258.86,23.43 Z M255.668,30.584 L253.134,30.584 L253.134,19.818 L255.668,19.818 L255.668,20.616 C256.209336,19.9346633 256.946662,19.594 257.88,19.594 C258.393336,19.594 258.871664,19.6943323 259.315,19.895 C259.758336,20.0956677 260.143332,20.3686649 260.47,20.714 C260.796668,21.0593351 261.050999,21.465331 261.233,21.932 C261.415001,22.398669 261.506,22.8979973 261.506,23.43 C261.506,23.9620027 261.415001,24.4566644 261.233,24.914 C261.050999,25.3713356 260.799002,25.7726649 260.477,26.118 C260.154998,26.4633351 259.774669,26.733999 259.336,26.93 C258.897331,27.126001 258.421336,27.224 257.908,27.224 C257.011996,27.224 256.265336,26.9160031 255.668,26.3 L255.668,30.584 Z M268.198,22.366 C268.114,22.0113316 267.941335,21.7266677 267.68,21.512 C267.418665,21.2973323 267.101335,21.19 266.728,21.19 C266.335998,21.19 266.016335,21.2926656 265.769,21.498 C265.521665,21.7033344 265.365334,21.9926648 265.3,22.366 L268.198,22.366 Z M265.23,23.836 C265.23,24.9280055 265.743328,25.474 266.77,25.474 C267.320669,25.474 267.735999,25.2500022 268.016,24.802 L270.466,24.802 C269.971331,26.4446749 268.734677,27.266 266.756,27.266 C266.14933,27.266 265.594003,27.1750009 265.09,26.993 C264.585997,26.8109991 264.154335,26.5520017 263.795,26.216 C263.435665,25.8799983 263.158001,25.478669 262.962,25.012 C262.765999,24.545331 262.668,24.0226696 262.668,23.444 C262.668,22.8466637 262.761332,22.3076691 262.948,21.827 C263.134668,21.3463309 263.400665,20.9380017 263.746,20.602 C264.091335,20.2659983 264.508998,20.0070009 264.999,19.825 C265.489002,19.6429991 266.041997,19.552 266.658,19.552 C267.26467,19.552 267.810664,19.6429991 268.296,19.825 C268.781336,20.0070009 269.191998,20.2706649 269.528,20.616 C269.864002,20.9613351 270.120666,21.3836642 270.298,21.883 C270.475334,22.3823358 270.564,22.9446635 270.564,23.57 L270.564,23.836 L265.23,23.836 Z M272.006,19.818 L274.54,19.818 L274.54,20.994 C274.810668,20.5646645 275.141998,20.2356678 275.534,20.007 C275.926002,19.7783322 276.383331,19.664 276.906,19.664 L277.123,19.664 C277.202334,19.664 277.293333,19.6733332 277.396,19.692 L277.396,22.114 C277.059998,21.9459992 276.696002,21.862 276.304,21.862 C275.715997,21.862 275.275001,22.0369982 274.981,22.387 C274.686999,22.7370017 274.54,23.2479966 274.54,23.92 L274.54,27 L272.006,27 L272.006,19.818 Z M281.344,21.932 L281.344,27 L278.81,27 L278.81,21.932 L277.97,21.932 L277.97,19.818 L278.81,19.818 L278.81,17.662 L281.344,17.662 L281.344,19.818 L282.786,19.818 L282.786,21.932 L281.344,21.932 Z M288.498,21.666 C288.031331,21.4233321 287.574002,21.302 287.126,21.302 C286.892665,21.302 286.703667,21.3486662 286.559,21.442 C286.414333,21.5353338 286.342,21.6613325 286.342,21.82 C286.342,21.9040004 286.353667,21.9716664 286.377,22.023 C286.400333,22.0743336 286.451666,22.1233331 286.531,22.17 C286.610334,22.2166669 286.726999,22.2586665 286.881,22.296 C287.035001,22.3333335 287.237999,22.3799997 287.49,22.436 C288.190003,22.5760007 288.712665,22.8256649 289.058,23.185 C289.403335,23.5443351 289.576,24.0039972 289.576,24.564 C289.576,24.9840021 289.492001,25.3619983 289.324,25.698 C289.155999,26.0340017 288.922668,26.3163322 288.624,26.545 C288.325332,26.7736678 287.966002,26.9509994 287.546,27.077 C287.125998,27.2030006 286.664003,27.266 286.16,27.266 C285.189328,27.266 284.232671,26.9906694 283.29,26.44 L284.214,24.648 C284.923337,25.1333358 285.59533,25.376 286.23,25.376 C286.463334,25.376 286.654666,25.3246672 286.804,25.222 C286.953334,25.1193328 287.028,24.9886675 287.028,24.83 C287.028,24.7366662 287.016333,24.659667 286.993,24.599 C286.969667,24.538333 286.920667,24.4823336 286.846,24.431 C286.771333,24.3796664 286.661667,24.3330002 286.517,24.291 C286.372333,24.2489998 286.183334,24.2046669 285.95,24.158 C285.165996,23.9993325 284.617668,23.7636682 284.305,23.451 C283.992332,23.1383318 283.836,22.7066694 283.836,22.156 C283.836,21.7546647 283.910666,21.3930016 284.06,21.071 C284.209334,20.7489984 284.423999,20.4760011 284.704,20.252 C284.984001,20.0279989 285.322331,19.8553339 285.719,19.734 C286.115669,19.6126661 286.556664,19.552 287.042,19.552 C287.835337,19.552 288.60533,19.7059985 289.352,20.014 L288.498,21.666 Z" id="CertifedValuationExperts" fill="#2F5496" fill-rule="nonzero"></path>
            </g>
        </g>
    </g>
</svg>